<?xml version="1.0" encoding="UTF-8"?>
<svg xmlns="http://www.w3.org/2000/svg" width="1280" height="720" viewBox="0 0 1280 720" role="img" aria-label="Travel Demo Preview 10">
  <defs>
    <linearGradient id="bg-10" x1="0" y1="0" x2="1" y2="1">
      <stop offset="0%" stop-color="#141414"/>
      <stop offset="100%" stop-color="#22333b"/>
    </linearGradient>
    <linearGradient id="glow-10" x1="0" y1="0" x2="1" y2="0">
      <stop offset="0%" stop-color="#ff8c42" stop-opacity="0.75"/>
      <stop offset="100%" stop-color="#ffffff" stop-opacity="0"/>
    </linearGradient>
  </defs>
  <rect width="1280" height="720" fill="url(#bg-10)"/>
  <circle cx="160" cy="120" r="220" fill="#ff8c42" fill-opacity="0.12"/>
  <circle cx="1120" cy="620" r="280" fill="#ffffff" fill-opacity="0.06"/>
  <rect x="72" y="64" width="1136" height="592" rx="24" fill="#03060a" fill-opacity="0.48" stroke="#ffffff" stroke-opacity="0.16"/>
  <rect x="104" y="116" width="1072" height="420" rx="18" fill="#000000" fill-opacity="0.52"/>
  <rect x="104" y="116" width="1072" height="8" fill="url(#glow-10)"/>
  <circle cx="640" cy="326" r="66" fill="#ffffff" fill-opacity="0.22"/>
  <polygon points="620,290 620,362 686,326" fill="#ffffff"/>
  <rect x="104" y="560" width="420" height="12" rx="6" fill="#ffffff" fill-opacity="0.75"/>
  <rect x="104" y="584" width="320" height="10" rx="5" fill="#ffffff" fill-opacity="0.45"/>
  <rect x="104" y="612" width="220" height="10" rx="5" fill="#ffffff" fill-opacity="0.35"/>
  <rect x="922" y="570" width="254" height="56" rx="14" fill="#ffffff" fill-opacity="0.12" stroke="#ffffff" stroke-opacity="0.24"/>
  <text x="1048" y="605" text-anchor="middle" font-family="Arial, sans-serif" font-size="20" font-weight="700" fill="#ffffff" fill-opacity="0.9">Demo sin acción</text>
  <text x="104" y="96" font-family="Arial, sans-serif" font-size="18" font-weight="700" fill="#ffffff" fill-opacity="0.72">TRAVEL YOUR MAP · PREVIEW 10</text>
</svg>
